<svg width="383" height="391" viewBox="0 0 383 391" fill="none" xmlns="http://www.w3.org/2000/svg">
<path d="M382.943 186.291L429.245 282.347" stroke="#302B25"/>
<path d="M213.403 126.848L101.008 180.173" stroke="#302B25"/>
<path d="M142.692 0.844427L83.9141 -18.6241" stroke="#302B25"/>
<path d="M335.311 268.63L333.271 310.397" stroke="#302B25"/>
<path d="M266.646 257.496L242.42 318.531" stroke="#302B25"/>
<path d="M273.655 -42.5226C337.124 -72.6351 412.857 -45.8587 442.812 17.2772C472.766 80.4134 445.603 156.009 382.134 186.122C318.665 216.234 242.932 189.457 212.978 126.321C183.023 63.1848 210.186 -12.41 273.655 -42.5226Z" stroke="#302B25"/>
<circle cx="325.546" cy="71.4566" r="148.916" transform="rotate(-25.3818 325.546 71.4566)" stroke="#302B25"/>
<circle cx="328.238" cy="69.4513" r="198.282" transform="rotate(-25.3818 328.238 69.4513)" stroke="#302B25"/>
<circle cx="328.237" cy="69.4509" r="208.814" transform="rotate(-25.3818 328.237 69.4509)" stroke="#302B25"/>
<circle cx="329.115" cy="69.7636" r="218.687" transform="rotate(-25.3818 329.115 69.7636)" stroke="#302B25"/>
<circle cx="131.931" cy="165.501" r="15.7973" transform="rotate(-25.3818 131.931 165.501)" fill="#404000"/>
<circle cx="392.253" cy="205.915" r="13.8226" transform="rotate(-25.3818 392.253 205.915)" fill="#404000"/>
<circle cx="358.761" cy="216.706" r="3.94932" transform="rotate(-25.3818 358.761 216.706)" fill="#404000"/>
<circle cx="316.308" cy="219.363" r="3.94932" transform="rotate(-25.3818 316.308 219.363)" fill="#404000"/>
<circle cx="261.823" cy="205.871" r="3.94932" transform="rotate(-25.3818 261.823 205.871)" fill="#404000"/>
<circle cx="221.792" cy="176.78" r="3.94932" transform="rotate(-25.3818 221.792 176.78)" fill="#404000"/>
<circle cx="177.154" cy="85.7625" r="3.94932" transform="rotate(-25.3818 177.154 85.7625)" fill="#404000"/>
<circle cx="180.505" cy="37.5453" r="3.94932" transform="rotate(-25.3818 180.505 37.5453)" fill="#404000"/>
<circle cx="339.712" cy="198.058" r="2.63288" transform="rotate(-25.3818 339.712 198.058)" fill="#404000"/>
<circle cx="298.572" cy="194.264" r="2.63288" transform="rotate(-25.3818 298.572 194.264)" fill="#404000"/>
<circle cx="262.935" cy="180.573" r="2.63288" transform="rotate(-25.3818 262.935 180.573)" fill="#404000"/>
<circle cx="234.554" cy="157.611" r="2.63288" transform="rotate(-25.3818 234.554 157.611)" fill="#404000"/>
<circle cx="201.826" cy="88.6276" r="2.63288" transform="rotate(-25.3818 201.826 88.6276)" fill="#404000"/>
<circle cx="202.556" cy="53.311" r="2.63288" transform="rotate(-25.3818 202.556 53.311)" fill="#404000"/>
<circle cx="213.929" cy="15.8594" r="2.63288" transform="rotate(-25.3818 213.929 15.8594)" fill="#404000"/>
<circle cx="370.124" cy="265.227" r="6.5822" transform="rotate(-25.3818 370.124 265.227)" fill="#404000"/>
<circle cx="297.616" cy="269.029" r="6.5822" transform="rotate(-25.3818 297.616 269.029)" fill="#404000"/>
<circle cx="333.27" cy="310.397" r="6.5822" transform="rotate(-25.3818 333.27 310.397)" fill="#404000"/>
<circle cx="242.419" cy="318.531" r="6.5822" transform="rotate(-25.3818 242.419 318.531)" fill="#404000"/>
<circle cx="235.11" cy="244.773" r="6.5822" transform="rotate(-25.3818 235.11 244.773)" fill="#404000"/>
<circle cx="184.055" cy="207.798" r="6.5822" transform="rotate(-25.3818 184.055 207.798)" fill="#404000"/>
<circle cx="131.012" cy="95.9974" r="6.5822" transform="rotate(-25.3818 131.012 95.9974)" fill="#404000"/>
<circle cx="132.852" cy="35.3836" r="6.5822" transform="rotate(-25.3818 132.852 35.3836)" fill="#404000"/>
</svg>
