<svg width="91" height="91" viewBox="0 0 91 91" fill="none" xmlns="http://www.w3.org/2000/svg">
<circle cx="45.5" cy="45.5" r="44" stroke="white" stroke-width="3"/>
<path d="M51.5807 24.5712C53.3078 24.5714 54.9723 25.2175 56.2471 26.3826C57.522 27.5478 58.3149 29.1476 58.47 30.8676C60.0452 31.0385 61.5346 31.6713 62.7512 32.6863C63.9678 33.7013 64.8572 35.0533 65.3075 36.5723C65.7579 38.0914 65.7492 39.7096 65.2824 41.2237C64.8157 42.7378 63.9118 44.0801 62.6843 45.0819C64.353 45.9032 65.7056 47.2501 66.5337 48.9154C67.3619 50.5808 67.6198 52.4721 67.2676 54.2983C66.9155 56.1246 65.9729 57.7844 64.5849 59.0224C63.1969 60.2604 61.4405 61.0079 59.5861 61.1498L59.5147 61.4891C59.2075 62.9212 58.4884 64.2323 57.4457 65.261C56.403 66.2896 55.0823 66.991 53.6461 67.2786C52.2099 67.5663 50.721 67.4278 49.3625 66.8802C48.0041 66.3325 46.8354 65.3996 46.0004 64.1962C45.1654 65.3996 43.9969 66.3325 42.6386 66.8803C41.2802 67.4281 39.7914 67.5667 38.3553 67.2793C36.9191 66.9918 35.5984 66.2907 34.5556 65.2622C33.5128 64.2338 32.7934 62.9229 32.4861 61.4909L32.4146 61.1516C30.5584 61.0128 28.7994 60.2669 27.4091 59.0292C26.0188 57.7914 25.0745 56.1305 24.7219 54.3028C24.3693 52.475 24.6279 50.5821 25.458 48.9159C26.288 47.2498 27.6433 45.9031 29.3146 45.0837C28.0872 44.0819 27.1833 42.7396 26.7165 41.2255C26.2498 39.7114 26.241 38.0931 26.6914 36.5741C27.1418 35.0551 28.0311 33.7031 29.2477 32.6881C30.4643 31.673 31.9538 31.0403 33.5289 30.8694C33.6545 29.4692 34.2037 28.1404 35.1034 27.0601C36.0031 25.9798 37.2105 25.1993 38.565 24.8225C39.9194 24.4456 41.3565 24.4904 42.6848 24.9509C44.0132 25.4113 45.1697 26.2656 46.0004 27.3998C46.6425 26.5226 47.4825 25.8093 48.4521 25.3179C49.4217 24.8264 50.4936 24.5706 51.5807 24.5712ZM40.42 27.2498C39.2952 27.2498 38.2165 27.6966 37.4211 28.492C36.6258 29.2873 36.1789 30.3661 36.1789 31.4909V32.1605C36.1789 32.5157 36.0378 32.8564 35.7867 33.1075C35.5355 33.3587 35.1948 33.4998 34.8396 33.4998H34.3932C32.9724 33.4998 31.6098 34.0642 30.6051 35.0689C29.6005 36.0735 29.0361 37.4361 29.0361 38.8569C29.0361 40.2777 29.6005 41.6403 30.6051 42.645C31.6098 43.6497 32.9724 44.2141 34.3932 44.2141H34.8396C36.1421 44.2141 37.3911 44.7315 38.312 45.6524C39.233 46.5733 39.7504 47.8224 39.7504 49.1248V49.8034C40.6465 50.1167 41.4026 50.7376 41.8844 51.5556C42.3662 52.3737 42.5424 53.336 42.3818 54.2717C42.2212 55.2074 41.7342 56.0559 41.0072 56.6665C40.2803 57.2771 39.3604 57.6103 38.4111 57.6069C37.4645 57.6054 36.5488 57.2696 35.8255 56.6589C35.1023 56.0482 34.6179 55.2017 34.4578 54.2687C34.2976 53.3357 34.4721 52.3762 34.9503 51.5592C35.4285 50.7423 36.1799 50.1205 37.0718 49.8034V49.1248C37.0718 47.8926 36.0718 46.8926 34.8396 46.8926H33.0539C31.5147 46.8926 30.0386 47.5041 28.9502 48.5925C27.8618 49.6809 27.2504 51.157 27.2504 52.6962C27.2504 54.2354 27.8618 55.7116 28.9502 56.8C30.0386 57.8883 31.5147 58.4998 33.0539 58.4998H33.5004C33.7669 58.4998 34.0274 58.5793 34.2485 58.7282C34.4696 58.8771 34.6412 59.0885 34.7414 59.3355L34.8093 59.5587L35.1021 60.9301C35.3539 62.0958 36.0276 63.1273 36.9938 63.8263C37.96 64.5252 39.1504 64.8424 40.3363 64.7168C41.5222 64.5912 42.6198 64.0317 43.4181 63.1458C44.2165 62.2599 44.6591 61.1102 44.6611 59.9176V39.7498H42.1968C41.8834 40.646 41.2626 41.4021 40.4445 41.8838C39.6265 42.3656 38.6642 42.5418 37.7285 42.3812C36.7928 42.2206 35.9443 41.7336 35.3337 41.0067C34.723 40.2797 34.3898 39.3599 34.3932 38.4105C34.3948 37.4639 34.7305 36.5482 35.3413 35.825C35.952 35.1017 36.7985 34.6173 37.7314 34.4572C38.6644 34.2971 39.624 34.4715 40.4409 34.9497C41.2578 35.428 41.8797 36.1793 42.1968 37.0712H44.6611V31.4909C44.6611 30.3661 44.2143 29.2873 43.4189 28.492C42.6235 27.6966 41.5448 27.2498 40.42 27.2498ZM59.1557 46.8962C58.9556 47.4586 58.6327 47.9693 58.2104 48.3913C57.7882 48.8132 57.2772 49.1358 56.7146 49.3355V50.0176C56.7146 50.6625 56.5876 51.3011 56.3408 51.8969C56.0941 52.4927 55.7323 53.034 55.2763 53.49C54.8203 53.946 54.279 54.3078 53.6832 54.5546C53.0874 54.8013 52.4488 54.9284 51.8039 54.9284H47.3396V59.9176C47.3395 61.1112 47.7811 62.2625 48.5793 63.1499C49.3775 64.0372 50.4758 64.5977 51.6627 64.7235C52.8496 64.8492 54.041 64.5313 55.0074 63.8309C55.9738 63.1305 56.6469 62.0972 56.8968 60.9301L57.1914 59.5587L57.2593 59.3355C57.3595 59.0885 57.5312 58.8771 57.7522 58.7282C57.9733 58.5793 58.2338 58.4998 58.5004 58.4998H58.9468C60.4688 58.5012 61.9305 57.9047 63.0169 56.8386C64.1033 55.7726 64.7275 54.3225 64.7549 52.8007C64.7823 51.2789 64.2107 49.8072 63.1634 48.7028C62.1161 47.5984 60.6768 46.9496 59.1557 46.8962ZM38.4111 52.2498C38.0559 52.2498 37.7152 52.3909 37.4641 52.6421C37.2129 52.8932 37.0718 53.2339 37.0718 53.5891C37.0718 53.9443 37.2129 54.2849 37.4641 54.5361C37.7152 54.7873 38.0559 54.9284 38.4111 54.9284C38.7663 54.9284 39.1069 54.7873 39.3581 54.5361C39.6093 54.2849 39.7504 53.9443 39.7504 53.5891C39.7504 53.2339 39.6093 52.8932 39.3581 52.6421C39.1069 52.3909 38.7663 52.2498 38.4111 52.2498ZM51.5807 27.2498C50.4559 27.2498 49.3772 27.6966 48.5818 28.492C47.7865 29.2873 47.3396 30.3661 47.3396 31.4909V52.2498H51.8039C53.0361 52.2498 54.0361 51.2498 54.0361 50.0176V49.3355C53.1425 49.0203 52.3892 48.3992 51.9095 47.582C51.4297 46.7649 51.2546 45.8044 51.4149 44.8705C51.5753 43.9366 52.0608 43.0895 52.7856 42.4792C53.5104 41.8688 54.4278 41.5345 55.3754 41.5355C57.045 41.5355 58.4754 42.5534 59.0825 44.0034C60.3239 43.6477 61.3949 42.8555 62.0984 41.7726C62.8018 40.6897 63.0904 39.3892 62.9108 38.1104C62.7312 36.8317 62.0956 35.6608 61.1211 34.8136C60.1466 33.9664 58.8988 33.4998 57.6075 33.4998H57.1611C56.8059 33.4998 56.4652 33.3587 56.2141 33.1075C55.9629 32.8564 55.8218 32.5157 55.8218 32.1605V31.4909C55.8218 30.3661 55.375 29.2873 54.5796 28.492C53.7843 27.6966 52.7055 27.2498 51.5807 27.2498ZM55.3754 44.2141C55.0202 44.2141 54.6795 44.3552 54.4283 44.6063C54.1772 44.8575 54.0361 45.1982 54.0361 45.5534C54.0361 45.9086 54.1772 46.2492 54.4283 46.5004C54.6795 46.7515 55.0202 46.8926 55.3754 46.8926C55.7306 46.8926 56.0712 46.7515 56.3224 46.5004C56.5735 46.2492 56.7146 45.9086 56.7146 45.5534C56.7146 45.1982 56.5735 44.8575 56.3224 44.6063C56.0712 44.3552 55.7306 44.2141 55.3754 44.2141ZM38.4111 37.0712C38.0559 37.0712 37.7152 37.2123 37.4641 37.4635C37.2129 37.7147 37.0718 38.0553 37.0718 38.4105C37.0718 38.7657 37.2129 39.1064 37.4641 39.3575C37.7152 39.6087 38.0559 39.7498 38.4111 39.7498C38.7663 39.7498 39.1069 39.6087 39.3581 39.3575C39.6093 39.1064 39.7504 38.7657 39.7504 38.4105C39.7504 38.0553 39.6093 37.7147 39.3581 37.4635C39.1069 37.2123 38.7663 37.0712 38.4111 37.0712Z" fill="white"/>
</svg>
