<svg width="110" height="166" viewBox="0 0 110 166" fill="none" xmlns="http://www.w3.org/2000/svg">
<path d="M49.5526 84.709C49.1123 84.7097 48.6775 84.8064 48.2785 84.9925C47.8794 85.1785 47.5258 85.4494 47.2423 85.7862C46.9587 86.123 46.7521 86.5177 46.6368 86.9426C46.5215 87.3675 46.5004 87.8125 46.5748 88.2464C46.6492 88.6804 46.8175 89.0928 47.0678 89.455C47.3181 89.8173 47.6444 90.1205 48.024 90.3436C48.4035 90.5666 48.8272 90.7042 49.2655 90.7466C49.7037 90.7891 50.1459 90.7354 50.5612 90.5893" stroke="#FEFE00" stroke-linecap="round" stroke-linejoin="round"/>
<path d="M46.7932 86.3279C46.1896 86.0373 45.6679 85.601 45.2751 85.0583C44.8823 84.5156 44.6308 83.8837 44.5433 83.2195C44.4559 82.5554 44.5351 81.8799 44.774 81.254C45.0129 80.6281 45.4039 80.0716 45.9117 79.6347M45.9419 79.553C45.6111 79.058 45.4662 78.4619 45.5327 77.8703C45.5991 77.2787 45.8728 76.7297 46.3052 76.3205C46.7376 75.9113 47.3009 75.6682 47.8952 75.6344C48.4896 75.6006 49.0768 75.7782 49.5528 76.1357M49.7928 76.2013C49.6319 75.8594 49.5499 75.4858 49.5529 75.1079C49.5558 74.7301 49.6436 74.3577 49.8098 74.0184C49.976 73.6791 50.2164 73.3814 50.5131 73.1475C50.8098 72.9135 51.1553 72.7492 51.524 72.6668C51.8927 72.5843 52.2753 72.5858 52.6434 72.671C53.0115 72.7563 53.3557 72.9232 53.6507 73.1594C53.9456 73.3956 54.1836 73.6951 54.3472 74.0357C54.5109 74.3763 54.5958 74.7493 54.5959 75.1271V90.7607C54.5959 91.2958 54.3834 91.8088 54.0051 92.1872C53.6268 92.5655 53.1137 92.778 52.5787 92.778C52.0436 92.778 51.5306 92.5655 51.1522 92.1872C50.7739 91.8088 50.5614 91.2958 50.5614 90.7607M54.5959 77.6487C54.5959 78.4512 54.9147 79.2208 55.4821 79.7883C56.0496 80.3557 56.8192 80.6745 57.6218 80.6745M59.639 84.709C60.0793 84.7097 60.5141 84.8064 60.9131 84.9925C61.3122 85.1785 61.6658 85.4494 61.9494 85.7862C62.2329 86.123 62.4395 86.5177 62.5548 86.9426C62.6701 87.3675 62.6912 87.8125 62.6168 88.2464C62.5424 88.6804 62.3741 89.0928 62.1238 89.4551C61.8735 89.8173 61.5472 90.1205 61.1676 90.3436C60.7881 90.5667 60.3644 90.7042 59.9261 90.7467C59.4879 90.7891 59.0457 90.7354 58.6304 90.5893" stroke="#FEFE00" stroke-linecap="round" stroke-linejoin="round"/>
<path d="M62.3984 86.3279C63.002 86.0373 63.5237 85.601 63.9165 85.0583C64.3093 84.5156 64.5608 83.8837 64.6483 83.2195C64.7357 82.5554 64.6565 81.8799 64.4176 81.254C64.1787 80.6281 63.7877 80.0716 63.2799 79.6347M63.2497 79.553C63.5805 79.058 63.7254 78.4619 63.6589 77.8703C63.5925 77.2787 63.3188 76.7297 62.8864 76.3205C62.454 75.9113 61.8907 75.6682 61.2964 75.6344C60.702 75.6006 60.1148 75.7782 59.6388 76.1357M54.5957 75.1271C54.5958 74.7493 54.6807 74.3763 54.8444 74.0357C55.008 73.6951 55.246 73.3956 55.5409 73.1594C55.8359 72.9232 56.1801 72.7563 56.5482 72.671C56.9163 72.5858 57.2989 72.5843 57.6676 72.6668C58.0363 72.7492 58.3818 72.9135 58.6785 73.1475C58.9752 73.3814 59.2156 73.6791 59.3818 74.0184C59.548 74.3577 59.6358 74.7301 59.6387 75.1079C59.6417 75.4858 59.5597 75.8594 59.3988 76.2013M58.6302 90.7607C58.6302 91.2958 58.4177 91.8088 58.0393 92.1872C57.661 92.5655 57.148 92.778 56.6129 92.778C56.0779 92.778 55.5648 92.5655 55.1865 92.1872C54.8082 91.8088 54.5957 91.2958 54.5957 90.7607" stroke="#FEFE00" stroke-linecap="round" stroke-linejoin="round"/>
<circle cx="54.9062" cy="83.0021" r="17.5" stroke="#FEFE00"/>
<circle cx="54.9064" cy="83.0021" r="15.0172" stroke="#4A4A00"/>
<path d="M65.3333 71.0021C65.3333 72.4749 66.5272 73.6688 68 73.6688C69.4728 73.6688 70.6667 72.4749 70.6667 71.0021C70.6667 69.5294 69.4728 68.3355 68 68.3355C66.5272 68.3355 65.3333 69.5294 65.3333 71.0021ZM95.3333 43.0021C95.3333 44.4749 96.5272 45.6688 98 45.6688C99.4728 45.6688 100.667 44.4749 100.667 43.0021C100.667 41.5294 99.4728 40.3355 98 40.3355C96.5272 40.3355 95.3333 41.5294 95.3333 43.0021ZM68 71.0021L68.3412 71.3677L98.3412 43.3677L98 43.0021L97.6588 42.6366L67.6588 70.6366L68 71.0021Z" fill="#FEFE00"/>
<path d="M52.3333 163.006C52.3333 164.479 53.5272 165.673 55 165.673C56.4728 165.673 57.6667 164.479 57.6667 163.006C57.6667 161.534 56.4728 160.34 55 160.34C53.5272 160.34 52.3333 161.534 52.3333 163.006ZM52.3333 101.002C52.3333 102.475 53.5272 103.669 55 103.669C56.4728 103.669 57.6667 102.475 57.6667 101.002C57.6667 99.5294 56.4728 98.3355 55 98.3355C53.5272 98.3355 52.3333 99.5294 52.3333 101.002ZM55 163.006H55.5V101.002H55H54.5V163.006H55Z" fill="#FEFE00"/>
<path d="M70.3333 83.0021C70.3333 84.4749 71.5272 85.6688 73 85.6688C74.4728 85.6688 75.6667 84.4749 75.6667 83.0021C75.6667 81.5294 74.4728 80.3355 73 80.3355C71.5272 80.3355 70.3333 81.5294 70.3333 83.0021ZM104.333 83.0021C104.333 84.4749 105.527 85.6688 107 85.6688C108.473 85.6688 109.667 84.4749 109.667 83.0021C109.667 81.5294 108.473 80.3355 107 80.3355C105.527 80.3355 104.333 81.5294 104.333 83.0021ZM73 83.0021V83.5021H107V83.0021V82.5021H73V83.0021Z" fill="#FEFE00"/>
<path d="M39.6667 83C39.6667 84.4728 38.4728 85.6667 37 85.6667C35.5272 85.6667 34.3333 84.4728 34.3333 83C34.3333 81.5272 35.5272 80.3333 37 80.3333C38.4728 80.3333 39.6667 81.5272 39.6667 83ZM5.66667 83C5.66667 84.4728 4.47276 85.6667 3 85.6667C1.52724 85.6667 0.333334 84.4728 0.333334 83C0.333334 81.5272 1.52724 80.3333 3 80.3333C4.47276 80.3333 5.66667 81.5272 5.66667 83ZM37 83V83.5H3V83V82.5H37V83Z" fill="#FEFE00"/>
<path d="M51.9798 65.0042C51.9798 66.4769 53.1737 67.6708 54.6465 67.6708C56.1192 67.6708 57.3132 66.4769 57.3132 65.0042C57.3132 63.5314 56.1192 62.3375 54.6465 62.3375C53.1737 62.3375 51.9798 63.5314 51.9798 65.0042ZM51.9798 3C51.9798 4.47276 53.1737 5.66667 54.6465 5.66667C56.1192 5.66667 57.3132 4.47276 57.3132 3C57.3132 1.52724 56.1192 0.333333 54.6465 0.333333C53.1737 0.333333 51.9798 1.52724 51.9798 3ZM54.6465 65.0042H55.1465V3H54.6465H54.1465V65.0042H54.6465Z" fill="#FEFE00"/>
<path d="M102.667 124.002C102.667 125.475 101.473 126.669 100 126.669C98.5272 126.669 97.3333 125.475 97.3333 124.002C97.3333 122.529 98.5272 121.335 100 121.335C101.473 121.335 102.667 122.529 102.667 124.002ZM72.6667 96.0021C72.6667 97.4749 71.4728 98.6688 70 98.6688C68.5272 98.6688 67.3333 97.4749 67.3333 96.0021C67.3333 94.5294 68.5272 93.3355 70 93.3355C71.4728 93.3355 72.6667 94.5294 72.6667 96.0021ZM100 124.002L99.6588 124.368L69.6588 96.3677L70 96.0021L70.3412 95.6366L100.341 123.637L100 124.002Z" fill="#FEFE00"/>
<path d="M7.33333 124.002C7.33333 125.475 8.52724 126.669 10 126.669C11.4728 126.669 12.6667 125.475 12.6667 124.002C12.6667 122.529 11.4728 121.335 10 121.335C8.52724 121.335 7.33333 122.529 7.33333 124.002ZM37.3333 96.0021C37.3333 97.4749 38.5272 98.6688 40 98.6688C41.4728 98.6688 42.6667 97.4749 42.6667 96.0021C42.6667 94.5294 41.4728 93.3355 40 93.3355C38.5272 93.3355 37.3333 94.5294 37.3333 96.0021ZM10 124.002L10.3412 124.368L40.3412 96.3677L40 96.0021L39.6588 95.6366L9.65884 123.637L10 124.002Z" fill="#FEFE00"/>
<path d="M44.6667 72.0021C44.6667 73.4749 43.4728 74.6688 42 74.6688C40.5272 74.6688 39.3333 73.4749 39.3333 72.0021C39.3333 70.5294 40.5272 69.3355 42 69.3355C43.4728 69.3355 44.6667 70.5294 44.6667 72.0021ZM14.6667 44.0021C14.6667 45.4749 13.4728 46.6688 12 46.6688C10.5272 46.6688 9.33333 45.4749 9.33333 44.0021C9.33333 42.5294 10.5272 41.3355 12 41.3355C13.4728 41.3355 14.6667 42.5294 14.6667 44.0021ZM42 72.0021L41.6588 72.3677L11.6588 44.3677L12 44.0021L12.3412 43.6366L42.3412 71.6366L42 72.0021Z" fill="#FEFE00"/>
</svg>
