<svg width="293" height="263" viewBox="0 0 293 263" fill="none" xmlns="http://www.w3.org/2000/svg">
<path d="M130.75 136.5C129.331 136.502 127.93 136.814 126.645 137.413C125.359 138.013 124.219 138.886 123.306 139.971C122.392 141.056 121.726 142.328 121.355 143.697C120.983 145.066 120.915 146.5 121.155 147.898C121.395 149.297 121.937 150.626 122.743 151.793C123.55 152.96 124.601 153.937 125.824 154.656C127.048 155.375 128.413 155.818 129.825 155.955C131.237 156.091 132.662 155.918 134 155.448" stroke="#8C8C00" stroke-width="2" stroke-linecap="round" stroke-linejoin="round"/>
<path d="M121.858 141.716C119.913 140.78 118.232 139.374 116.966 137.625C115.701 135.877 114.89 133.84 114.608 131.7C114.327 129.56 114.582 127.384 115.352 125.367C116.122 123.35 117.381 121.557 119.017 120.149M119.115 119.886C118.049 118.291 117.582 116.37 117.796 114.464C118.01 112.558 118.892 110.789 120.286 109.47C121.679 108.152 123.494 107.368 125.409 107.26C127.324 107.151 129.216 107.723 130.75 108.875M131.523 109.086C131.005 107.985 130.741 106.78 130.75 105.563C130.76 104.346 131.043 103.146 131.578 102.052C132.114 100.959 132.888 99.9999 133.844 99.246C134.8 98.4922 135.913 97.9628 137.102 97.6971C138.29 97.4314 139.523 97.4361 140.709 97.7108C141.895 97.9856 143.004 98.5234 143.954 99.2845C144.904 100.046 145.672 101.011 146.199 102.108C146.726 103.205 147 104.407 147 105.625V156C147 157.724 146.315 159.377 145.096 160.596C143.877 161.815 142.224 162.5 140.5 162.5C138.776 162.5 137.123 161.815 135.904 160.596C134.685 159.377 134 157.724 134 156M147 113.75C147 116.336 148.027 118.816 149.856 120.644C151.684 122.473 154.164 123.5 156.75 123.5M163.25 136.5C164.669 136.502 166.07 136.814 167.356 137.413C168.641 138.013 169.781 138.886 170.694 139.971C171.608 141.056 172.274 142.328 172.645 143.697C173.017 145.066 173.085 146.5 172.845 147.898C172.605 149.296 172.063 150.626 171.257 151.793C170.45 152.96 169.399 153.937 168.176 154.656C166.953 155.374 165.587 155.818 164.175 155.954C162.763 156.091 161.338 155.918 160 155.447" stroke="#8C8C00" stroke-width="2" stroke-linecap="round" stroke-linejoin="round"/>
<path d="M172.142 141.716C174.087 140.78 175.768 139.374 177.034 137.625C178.299 135.877 179.11 133.84 179.392 131.7C179.673 129.56 179.418 127.384 178.648 125.367C177.878 123.35 176.619 121.557 174.983 120.149M174.885 119.886C175.951 118.291 176.418 116.37 176.204 114.464C175.99 112.558 175.108 110.789 173.714 109.47C172.321 108.152 170.506 107.368 168.591 107.26C166.676 107.151 164.784 107.723 163.25 108.875M147 105.625C147 104.407 147.274 103.205 147.801 102.108C148.328 101.011 149.095 100.046 150.046 99.2845C150.996 98.5234 152.105 97.9856 153.291 97.7108C154.477 97.4361 155.71 97.4314 156.898 97.6971C158.086 97.9628 159.2 98.4922 160.156 99.246C161.112 99.9999 161.886 100.959 162.422 102.052C162.957 103.146 163.24 104.346 163.25 105.563C163.259 106.78 162.995 107.985 162.476 109.086M160 156C160 157.724 159.315 159.377 158.096 160.596C156.877 161.815 155.224 162.5 153.5 162.5C151.776 162.5 150.123 161.815 148.904 160.596C147.685 159.377 147 157.724 147 156" stroke="#8C8C00" stroke-width="2" stroke-linecap="round" stroke-linejoin="round"/>
<circle cx="147.5" cy="129.5" r="56" stroke="#8C8C00"/>
<path d="M147.5 85.5C172.926 85.5 193.5 105.22 193.5 129.5C193.5 153.78 172.926 173.5 147.5 173.5C122.074 173.5 101.5 153.78 101.5 129.5C101.5 105.22 122.074 85.5 147.5 85.5Z" stroke="#4A4A00"/>
<path d="M280.667 6C280.667 8.94552 283.054 11.3333 286 11.3333C288.946 11.3333 291.333 8.94552 291.333 6C291.333 3.05448 288.946 0.666667 286 0.666667C283.054 0.666667 280.667 3.05448 280.667 6ZM186.667 96C186.667 98.9455 189.054 101.333 192 101.333C194.946 101.333 197.333 98.9455 197.333 96C197.333 93.0545 194.946 90.6667 192 90.6667C189.054 90.6667 186.667 93.0545 186.667 96ZM286 6L285.308 5.27769L191.308 95.2777L192 96L192.692 96.7223L286.692 6.72231L286 6Z" fill="#8C8C00"/>
<path d="M13.3333 6C13.3333 8.94552 10.9455 11.3333 8 11.3333C5.05448 11.3333 2.66666 8.94552 2.66666 6C2.66666 3.05448 5.05448 0.666667 8 0.666667C10.9455 0.666667 13.3333 3.05448 13.3333 6ZM104.833 96C104.833 98.9455 102.446 101.333 99.5 101.333C96.5545 101.333 94.1667 98.9455 94.1667 96C94.1667 93.0545 96.5545 90.6667 99.5 90.6667C102.446 90.6667 104.833 93.0545 104.833 96ZM8 6L8.70124 5.28707L100.201 95.2871L99.5 96L98.7988 96.7129L7.29876 6.71293L8 6Z" fill="#8C8C00"/>
<path d="M197.667 130C197.667 132.946 200.054 135.333 203 135.333C205.946 135.333 208.333 132.946 208.333 130C208.333 127.054 205.946 124.667 203 124.667C200.054 124.667 197.667 127.054 197.667 130ZM281.667 130C281.667 132.946 284.054 135.333 287 135.333C289.946 135.333 292.333 132.946 292.333 130C292.333 127.054 289.946 124.667 287 124.667C284.054 124.667 281.667 127.054 281.667 130ZM203 130V131H287V130V129H203V130Z" fill="#8C8C00"/>
<path d="M94.3333 130C94.3333 127.054 91.9455 124.667 89 124.667C86.0545 124.667 83.6667 127.054 83.6667 130C83.6667 132.946 86.0545 135.333 89 135.333C91.9455 135.333 94.3333 132.946 94.3333 130ZM13.3333 130C13.3333 127.054 10.9455 124.667 8 124.667C5.05448 124.667 2.66666 127.054 2.66666 130C2.66666 132.946 5.05448 135.333 8 135.333C10.9455 135.333 13.3333 132.946 13.3333 130ZM89 130V129H8V130V131H89V130Z" fill="#8C8C00"/>
<path d="M186.667 164C186.667 166.946 189.054 169.333 192 169.333C194.946 169.333 197.333 166.946 197.333 164C197.333 161.054 194.946 158.667 192 158.667C189.054 158.667 186.667 161.054 186.667 164ZM281.667 257C281.667 259.946 284.054 262.333 287 262.333C289.946 262.333 292.333 259.946 292.333 257C292.333 254.054 289.946 251.667 287 251.667C284.054 251.667 281.667 254.054 281.667 257ZM192 164L191.3 164.715L286.3 257.715L287 257L287.7 256.285L192.7 163.285L192 164Z" fill="#8C8C00"/>
<path d="M108.333 164C108.333 166.946 105.946 169.333 103 169.333C100.054 169.333 97.6667 166.946 97.6667 164C97.6667 161.054 100.054 158.667 103 158.667C105.946 158.667 108.333 161.054 108.333 164ZM11.3333 257C11.3333 259.946 8.94552 262.333 6 262.333C3.05448 262.333 0.666672 259.946 0.666672 257C0.666672 254.054 3.05448 251.667 6 251.667C8.94552 251.667 11.3333 254.054 11.3333 257ZM103 164L103.692 164.722L6.69207 257.722L6 257L5.30794 256.278L102.308 163.278L103 164Z" fill="#8C8C00"/>
</svg>
