<svg width="533" height="532" viewBox="0 0 533 532" fill="none" xmlns="http://www.w3.org/2000/svg">
<path d="M249.438 272.5C248.019 272.502 246.618 272.814 245.332 273.413C244.046 274.013 242.907 274.886 241.993 275.971C241.08 277.056 240.414 278.328 240.042 279.697C239.671 281.066 239.603 282.5 239.842 283.898C240.082 285.297 240.624 286.626 241.431 287.793C242.237 288.96 243.289 289.937 244.512 290.656C245.735 291.375 247.1 291.818 248.512 291.955C249.924 292.091 251.349 291.918 252.688 291.448" stroke="#FEFE00" stroke-width="2" stroke-linecap="round" stroke-linejoin="round"/>
<path d="M240.545 277.716C238.601 276.78 236.919 275.374 235.654 273.625C234.388 271.877 233.578 269.84 233.296 267.7C233.014 265.56 233.269 263.384 234.039 261.367C234.809 259.35 236.069 257.557 237.705 256.149M237.802 255.886C236.737 254.291 236.269 252.37 236.484 250.464C236.698 248.558 237.58 246.789 238.973 245.47C240.366 244.152 242.181 243.368 244.096 243.26C246.012 243.151 247.904 243.723 249.437 244.875M250.211 245.086C249.693 243.985 249.428 242.78 249.438 241.563C249.447 240.346 249.73 239.146 250.266 238.052C250.801 236.959 251.576 236 252.532 235.246C253.488 234.492 254.601 233.963 255.789 233.697C256.977 233.431 258.21 233.436 259.396 233.711C260.582 233.986 261.691 234.523 262.642 235.285C263.592 236.046 264.359 237.011 264.886 238.108C265.413 239.205 265.687 240.407 265.687 241.625V292C265.687 293.724 265.003 295.377 263.784 296.596C262.565 297.815 260.911 298.5 259.187 298.5C257.464 298.5 255.81 297.815 254.591 296.596C253.372 295.377 252.687 293.724 252.687 292M265.687 249.75C265.687 252.336 266.715 254.816 268.543 256.644C270.372 258.473 272.852 259.5 275.437 259.5M281.937 272.5C283.356 272.502 284.757 272.814 286.043 273.413C287.329 274.013 288.468 274.886 289.382 275.971C290.296 277.056 290.961 278.328 291.333 279.697C291.704 281.066 291.772 282.5 291.533 283.898C291.293 285.296 290.751 286.626 289.944 287.793C289.138 288.96 288.086 289.937 286.863 290.656C285.64 291.374 284.275 291.818 282.863 291.954C281.451 292.091 280.026 291.918 278.687 291.447" stroke="#FEFE00" stroke-width="2" stroke-linecap="round" stroke-linejoin="round"/>
<path d="M290.83 277.716C292.774 276.78 294.456 275.374 295.721 273.625C296.987 271.877 297.797 269.84 298.079 267.7C298.361 265.56 298.105 263.384 297.336 261.367C296.566 259.35 295.306 257.557 293.67 256.149M293.573 255.886C294.638 254.291 295.106 252.37 294.891 250.464C294.677 248.558 293.795 246.789 292.402 245.47C291.009 244.152 289.194 243.368 287.279 243.26C285.363 243.151 283.471 243.723 281.938 244.875M265.688 241.625C265.688 240.407 265.962 239.205 266.489 238.108C267.016 237.011 267.783 236.046 268.733 235.285C269.684 234.523 270.793 233.986 271.979 233.711C273.165 233.436 274.398 233.431 275.586 233.697C276.774 233.963 277.887 234.492 278.843 235.246C279.799 236 280.574 236.959 281.109 238.052C281.645 239.146 281.928 240.346 281.937 241.563C281.947 242.78 281.682 243.985 281.164 245.086M278.688 292C278.688 293.724 278.003 295.377 276.784 296.596C275.565 297.815 273.911 298.5 272.188 298.5C270.464 298.5 268.81 297.815 267.591 296.596C266.372 295.377 265.688 293.724 265.688 292" stroke="#FEFE00" stroke-width="2" stroke-linecap="round" stroke-linejoin="round"/>
<circle cx="266.188" cy="265.5" r="56" stroke="#FEFE00"/>
<path d="M266.188 221.5C291.614 221.5 312.188 241.22 312.188 265.5C312.188 289.78 291.614 309.5 266.188 309.5C240.761 309.5 220.188 289.78 220.188 265.5C220.188 241.22 240.761 221.5 266.188 221.5Z" stroke="#4A4A00"/>
<path d="M452.294 469.638C455.408 472.773 460.473 472.789 463.607 469.675C466.742 466.561 466.758 461.496 463.644 458.362C460.53 455.227 455.465 455.211 452.33 458.325C449.196 461.439 449.18 466.504 452.294 469.638ZM299.293 315.638C302.408 318.773 307.473 318.789 310.607 315.675C313.742 312.561 313.758 307.496 310.644 304.362C307.53 301.227 302.465 301.211 299.33 304.325C296.196 307.439 296.179 312.504 299.293 315.638ZM457.969 464L459.033 462.943L306.033 308.943L304.969 310L303.905 311.057L456.905 465.057L457.969 464Z" fill="#FEFE00"/>
<path d="M89.3529 467.078C87.653 471.156 82.9689 473.084 78.8907 471.384C74.8126 469.684 72.8846 465 74.5846 460.922C76.2845 456.844 80.9686 454.916 85.0468 456.616C89.1249 458.316 91.0529 463 89.3529 467.078ZM232.271 310.657C230.571 314.735 225.887 316.663 221.809 314.963C217.731 313.263 215.803 308.579 217.503 304.501C219.203 300.423 223.887 298.495 227.965 300.195C232.043 301.895 233.971 306.579 232.271 310.657ZM81.9688 464L80.8614 462.988L223.779 306.567L224.887 307.579L225.994 308.591L83.0761 465.012L81.9688 464Z" fill="#FEFE00"/>
<path d="M298.732 223.03C295.782 226.319 296.057 231.377 299.346 234.327C302.635 237.277 307.692 237.002 310.643 233.713C313.593 230.424 313.318 225.366 310.029 222.416C306.74 219.466 301.682 219.741 298.732 223.03ZM433.611 72.6583C430.661 75.9473 430.936 81.0051 434.225 83.9553C437.514 86.9055 442.572 86.6308 445.522 83.3417C448.472 80.0527 448.197 74.9949 444.908 72.0447C441.619 69.0945 436.561 69.3692 433.611 72.6583ZM304.687 228.372L305.804 229.373L440.683 79.0016L439.566 78L438.45 76.9984L303.571 227.37L304.687 228.372Z" fill="#FEFE00"/>
<path d="M108.192 72.9343C105.394 69.5146 100.354 69.0105 96.9343 71.8082C93.5146 74.6059 93.0105 79.6461 95.8082 83.0657C98.6059 86.4854 103.646 86.9895 107.066 84.1918C110.485 81.3941 110.99 76.3539 108.192 72.9343ZM231.135 223.206C228.337 219.787 223.297 219.283 219.878 222.08C216.458 224.878 215.954 229.918 218.752 233.338C221.549 236.758 226.589 237.262 230.009 234.464C233.429 231.666 233.933 226.626 231.135 223.206ZM102 78L100.839 78.9498L223.782 229.222L224.943 228.272L226.104 227.322L103.161 77.0502L102 78Z" fill="#FEFE00"/>
<path d="M524.687 279C529.106 279 532.687 275.418 532.687 271C532.687 266.582 529.106 263 524.687 263C520.269 263 516.687 266.582 516.687 271C516.687 275.418 520.269 279 524.687 279ZM322.688 279C327.106 279 330.688 275.418 330.688 271C330.688 266.582 327.106 263 322.688 263C318.269 263 314.688 266.582 314.688 271C314.688 275.418 318.269 279 322.688 279ZM524.687 271V269.5H322.688V271V272.5H524.687V271Z" fill="#FEFE00"/>
<path d="M210 279C214.418 279 218 275.418 218 271C218 266.582 214.418 263 210 263C205.582 263 202 266.582 202 271C202 275.418 205.582 279 210 279ZM8 279C12.4183 279 16 275.418 16 271C16 266.582 12.4183 263 8 263C3.58172 263 4.76837e-07 266.582 4.76837e-07 271C4.76837e-07 275.418 3.58172 279 8 279ZM210 271V269.5H8V271V272.5H210V271Z" fill="#FEFE00"/>
<path d="M257.98 208.147C257.98 212.565 261.561 216.147 265.98 216.148C270.398 216.148 273.98 212.567 273.98 208.148C273.981 203.73 270.399 200.148 265.981 200.148C261.563 200.147 257.981 203.729 257.98 208.147ZM258 7.99922C258 12.4175 261.581 15.9996 265.999 16C270.417 16.0004 274 12.4191 274 8.00078C274 3.58251 270.419 0.000433371 266.001 0C261.583 -0.000433371 258 3.58094 258 7.99922ZM258 523.147C258 527.565 261.581 531.147 265.999 531.148C270.417 531.148 274 527.567 274 523.148C274 518.73 270.419 515.148 266.001 515.148C261.583 515.147 258 518.729 258 523.147ZM258.02 322.999C258.019 327.417 261.601 331 266.019 331C270.437 331 274.019 327.419 274.02 323.001C274.02 318.583 270.439 315 266.02 315C261.602 315 258.02 318.581 258.02 322.999ZM265.98 208.148L267.48 208.148L267.5 8.00015L266 8L264.5 7.99985L264.48 208.148L265.98 208.148ZM266 523.148L267.5 523.148L267.52 323L266.02 323L264.52 323L264.5 523.148L266 523.148Z" fill="#FEFE00"/>
</svg>
