<svg width="53" height="52" viewBox="0 0 53 52" fill="none" xmlns="http://www.w3.org/2000/svg">
<g clip-path="url(#clip0_311_4944)">
<path d="M4.29167 2.1665H31.375C33.468 2.1665 35.1667 3.86517 35.1667 5.95817V26.5415C35.1667 27.5471 34.7672 28.5115 34.0561 29.2226C33.345 29.9337 32.3806 30.3332 31.375 30.3332H17.9655L12.3885 35.908C11.9466 36.3482 11.3843 36.6478 10.7724 36.7689C10.1606 36.89 9.52652 36.8273 8.95025 36.5886C8.37397 36.35 7.88125 35.946 7.53418 35.4278C7.18712 34.9095 7.00125 34.3001 7 33.6763V30.3332H4.29167C3.28605 30.3332 2.32163 29.9337 1.61055 29.2226C0.899478 28.5115 0.5 27.5471 0.5 26.5415L0.5 5.95817C0.5 3.86517 2.19867 2.1665 4.29167 2.1665ZM3.75 5.95817V26.5415C3.75 26.8405 3.99267 27.0832 4.29167 27.0832H8.625C9.05598 27.0832 9.4693 27.2544 9.77405 27.5591C10.0788 27.8639 10.25 28.2772 10.25 28.7082V33.4532L16.1433 27.5598C16.4478 27.255 16.8608 27.0836 17.2917 27.0832H31.375C31.5187 27.0832 31.6564 27.0261 31.758 26.9245C31.8596 26.8229 31.9167 26.6852 31.9167 26.5415V5.95817C31.9167 5.81451 31.8596 5.67674 31.758 5.57515C31.6564 5.47357 31.5187 5.4165 31.375 5.4165H4.29167C4.14801 5.4165 4.01023 5.47357 3.90865 5.57515C3.80707 5.67674 3.75 5.81451 3.75 5.95817Z" fill="#FEFE00"/>
<path d="M49.25 18.9582C49.25 18.8145 49.1929 18.6767 49.0914 18.5752C48.9898 18.4736 48.852 18.4165 48.7083 18.4165H41.125C40.694 18.4165 40.2807 18.2453 39.976 17.9406C39.6712 17.6358 39.5 17.2225 39.5 16.7915C39.5 16.3605 39.6712 15.9472 39.976 15.6425C40.2807 15.3377 40.694 15.1665 41.125 15.1665H48.7083C50.8013 15.1665 52.5 16.8652 52.5 18.9582V39.5415C52.5 40.5471 52.1005 41.5115 51.3894 42.2226C50.6784 42.9337 49.7139 43.3332 48.7083 43.3332H46V46.6763C45.9998 47.3005 45.8145 47.9107 45.4676 48.4296C45.1207 48.9485 44.6278 49.353 44.0511 49.5918C43.4744 49.8307 42.8398 49.8932 42.2276 49.7715C41.6154 49.6498 41.053 49.3493 40.6115 48.908L35.0345 43.3332H23.7917C22.7861 43.3332 21.8216 42.9337 21.1106 42.2226C20.3995 41.5115 20 40.5471 20 39.5415V36.3673C20 35.9364 20.1712 35.523 20.476 35.2183C20.7807 34.9135 21.194 34.7423 21.625 34.7423C22.056 34.7423 22.4693 34.9135 22.774 35.2183C23.0788 35.523 23.25 35.9364 23.25 36.3673V39.5415C23.25 39.8405 23.4927 40.0832 23.7917 40.0832H35.7083C36.1392 40.0836 36.5522 40.255 36.8567 40.5598L42.75 46.4532V41.7082C42.75 41.2772 42.9212 40.8639 43.226 40.5591C43.5307 40.2544 43.944 40.0832 44.375 40.0832H48.7083C48.852 40.0832 48.9898 40.0261 49.0914 39.9245C49.1929 39.8229 49.25 39.6852 49.25 39.5415V18.9582Z" fill="#FEFE00"/>
</g>
<defs>
<clipPath id="clip0_311_4944">
<rect width="52" height="52" fill="white" transform="translate(0.5)"/>
</clipPath>
</defs>
</svg>
