<svg version="1.1" id="Layer_1" xmlns="http://www.w3.org/2000/svg" xmlns:xlink="http://www.w3.org/1999/xlink" x="0px" y="0px"
	 width="100%" viewBox="0 0 338 218" enable-background="new 0 0 338 218" xml:space="preserve">
<path fill="#E1B825" opacity="1.000000" stroke="none" 
	d="
M194.000000,219.000000 
	C129.333344,219.000000 65.166679,219.000000 1.000017,219.000000 
	C1.000011,146.333344 1.000011,73.666702 1.000006,1.000037 
	C113.666634,1.000025 226.333267,1.000025 338.999939,1.000012 
	C338.999939,73.666626 338.999939,146.333252 338.999969,218.999939 
	C290.833344,219.000000 242.666672,219.000000 194.000000,219.000000 
M246.343292,170.780594 
	C271.621063,168.436691 297.262390,153.015671 298.631805,139.152771 
	C294.454559,139.152771 290.285858,138.993896 286.141083,139.239197 
	C284.696350,139.324707 282.877502,140.034195 281.963593,141.092575 
	C269.884033,155.081696 254.753922,161.030594 236.518799,157.969666 
	C207.496170,153.097961 191.653534,123.417992 203.027496,98.551773 
	C215.993515,70.204964 254.561325,63.430412 277.694000,85.319519 
	C279.095764,86.645927 280.711548,88.523949 282.357788,88.668968 
	C287.372162,89.110710 292.450256,88.829155 298.120758,88.829155 
	C297.228058,87.357048 296.859009,86.635262 296.387848,85.987793 
	C274.457153,55.850540 229.474060,51.414814 201.949493,76.667931 
	C180.608963,96.247337 178.374130,126.681213 196.970123,148.931320 
	C209.510818,163.936279 226.178314,170.366684 246.343292,170.780594 
M148.773468,105.288696 
	C158.850967,91.155167 168.928467,77.021645 179.527908,62.156086 
	C175.564194,62.156086 172.734482,62.410461 169.968323,62.099537 
	C165.205597,61.564198 162.187698,63.151844 159.363083,67.322212 
	C150.131180,80.952652 140.340820,94.204857 130.608780,107.821434 
	C129.519730,106.421135 128.580383,105.295952 127.729889,104.107208 
	C117.270851,89.488342 106.976936,74.748215 96.322601,60.273304 
	C89.066376,50.415047 80.995110,41.262993 68.526978,37.791836 
	C53.550816,33.622417 40.143898,36.924992 27.581306,46.407681 
	C31.000135,49.669319 33.973316,52.505798 36.861832,55.261505 
	C52.937817,44.489143 66.170708,45.987347 79.021095,59.787365 
	C80.944191,61.852581 82.708221,64.088577 84.361885,66.378410 
	C96.835510,83.650734 109.327484,100.910843 121.616951,118.313705 
	C123.022964,120.304733 123.824791,123.141579 123.868698,125.604752 
	C124.091324,138.094910 123.971245,150.591187 123.971252,163.085312 
	C123.971252,165.001953 123.971252,166.918594 123.971252,168.619736 
	C128.784088,168.619736 132.852005,168.619736 137.051910,168.619736 
	C137.051910,159.242050 137.783798,150.175964 136.882187,141.275360 
	C135.493195,127.563339 138.587814,115.749352 148.773468,105.288696 
z"/>
<path fill="#050401" opacity="1.000000" stroke="none" 
	d="
M245.882446,170.799561 
	C226.178314,170.366684 209.510818,163.936279 196.970123,148.931320 
	C178.374130,126.681213 180.608963,96.247337 201.949493,76.667931 
	C229.474060,51.414814 274.457153,55.850540 296.387848,85.987793 
	C296.859009,86.635262 297.228058,87.357048 298.120758,88.829155 
	C292.450256,88.829155 287.372162,89.110710 282.357788,88.668968 
	C280.711548,88.523949 279.095764,86.645927 277.694000,85.319519 
	C254.561325,63.430412 215.993515,70.204964 203.027496,98.551773 
	C191.653534,123.417992 207.496170,153.097961 236.518799,157.969666 
	C254.753922,161.030594 269.884033,155.081696 281.963593,141.092575 
	C282.877502,140.034195 284.696350,139.324707 286.141083,139.239197 
	C290.285858,138.993896 294.454559,139.152771 298.631805,139.152771 
	C297.262390,153.015671 271.621063,168.436691 245.882446,170.799561 
z"/>
<path fill="#030301" opacity="1.000000" stroke="none" 
	d="
M148.550674,105.570534 
	C138.587814,115.749352 135.493195,127.563339 136.882187,141.275360 
	C137.783798,150.175964 137.051910,159.242050 137.051910,168.619736 
	C132.852005,168.619736 128.784088,168.619736 123.971252,168.619736 
	C123.971252,166.918594 123.971252,165.001953 123.971252,163.085312 
	C123.971245,150.591187 124.091324,138.094910 123.868698,125.604752 
	C123.824791,123.141579 123.022964,120.304733 121.616951,118.313705 
	C109.327484,100.910843 96.835510,83.650734 84.361885,66.378410 
	C82.708221,64.088577 80.944191,61.852581 79.021095,59.787365 
	C66.170708,45.987347 52.937817,44.489143 36.861832,55.261505 
	C33.973316,52.505798 31.000135,49.669319 27.581306,46.407681 
	C40.143898,36.924992 53.550816,33.622417 68.526978,37.791836 
	C80.995110,41.262993 89.066376,50.415047 96.322601,60.273304 
	C106.976936,74.748215 117.270851,89.488342 127.729889,104.107208 
	C128.580383,105.295952 129.519730,106.421135 130.608780,107.821434 
	C140.340820,94.204857 150.131180,80.952652 159.363083,67.322212 
	C162.187698,63.151844 165.205597,61.564198 169.968323,62.099537 
	C172.734482,62.410461 175.564194,62.156086 179.527908,62.156086 
	C168.928467,77.021645 158.850967,91.155167 148.550674,105.570534 
z"/>
</svg>