<svg width="87" height="97" viewBox="0 0 87 97" fill="none" xmlns="http://www.w3.org/2000/svg">
<path d="M11.1716 96.1184L70.7829 88.7991C71.4335 88.7192 71.8962 88.127 71.8163 87.4764L62.295 9.93178C62.2151 9.28118 61.623 8.81854 60.9724 8.89842L1.36102 16.2178C0.710429 16.2977 0.247771 16.8898 0.327653 17.5404L9.84894 95.085C9.92882 95.7356 10.521 96.1983 11.1716 96.1184Z" fill="white"/>
<mask id="mask0_405_3530" style="mask-type:luminance" maskUnits="userSpaceOnUse" x="0" y="8" width="72" height="89">
<path d="M11.1716 96.1184L70.7829 88.7991C71.4335 88.7192 71.8962 88.127 71.8163 87.4764L62.295 9.93178C62.2151 9.28118 61.623 8.81854 60.9724 8.89842L1.36102 16.2178C0.710429 16.2977 0.247771 16.8898 0.327653 17.5404L9.84894 95.085C9.92882 95.7356 10.521 96.1983 11.1716 96.1184Z" fill="white"/>
</mask>
<g mask="url(#mask0_405_3530)">
<path d="M4.35592 13.974C4.35592 13.974 8.05762 89.2654 45.2393 94.2352L8.24366 103.523L-13.0684 61.1188L-9.46717 9.7334L4.35592 13.974Z" fill="white"/>
</g>
<path d="M14.6186 86.6222L65.3795 80.41L57.0395 12.3274L6.28711 18.5397C7.25619 41.4187 10.0421 64.1846 14.6186 86.6222Z" fill="#404000"/>
<path d="M19.8573 84.0175L70.7017 76.4944C61.1555 56.521 57.4111 34.4563 59.8361 11.9788L6.38281 18.1525C8.17119 40.5749 12.6963 62.6942 19.8573 84.0175Z" fill="#FEFE00"/>
<path d="M22.1537 19.9073L41.7617 17.4998C42.3701 17.4251 42.8027 16.8713 42.728 16.2629L42.0139 10.4472C41.9392 9.83877 41.3855 9.40613 40.7771 9.48083L21.1691 11.8884C20.5607 11.9631 20.1281 12.5168 20.2028 13.1252L20.9169 18.941C20.9916 19.5494 21.5453 19.982 22.1537 19.9073Z" fill="#8C8C00"/>
<path d="M22.8022 27.7351C22.7171 27.7402 22.6335 27.7113 22.5697 27.6547C22.5059 27.5982 22.4672 27.5186 22.4621 27.4336C22.457 27.3485 22.4859 27.2649 22.5425 27.2011C22.599 27.1373 22.6786 27.0986 22.7637 27.0935L43.1005 24.6044C43.1856 24.5941 43.2713 24.6181 43.3386 24.6711C43.406 24.724 43.4496 24.8016 43.4598 24.8866C43.47 24.9717 43.446 25.0574 43.3931 25.1247C43.3401 25.1921 43.2626 25.2357 43.1775 25.2459C21.9361 27.842 22.8342 27.7351 22.8022 27.7351ZM14.0515 37.108C14.0094 37.1105 13.9672 37.1047 13.9273 37.091C13.8874 37.0772 13.8506 37.0557 13.8191 37.0277C13.7875 36.9997 13.7618 36.9657 13.7433 36.9278C13.7248 36.8898 13.714 36.8486 13.7115 36.8065C13.709 36.7644 13.7148 36.7221 13.7286 36.6823C13.7424 36.6424 13.7639 36.6056 13.7919 36.574C13.8199 36.5425 13.8538 36.5167 13.8917 36.4982C13.9297 36.4798 13.9709 36.469 14.013 36.4665L20.5888 35.6603C20.6735 35.6505 20.7586 35.6745 20.8258 35.7269C20.893 35.7793 20.9369 35.8559 20.9481 35.9404C20.9532 35.9822 20.95 36.0247 20.9386 36.0653C20.9273 36.1059 20.9081 36.1439 20.8821 36.177C20.856 36.2102 20.8237 36.2379 20.787 36.2586C20.7503 36.2793 20.7098 36.2925 20.668 36.2975C13.7115 37.1508 14.0836 37.108 14.0515 37.108ZM23.803 35.9147C23.7608 35.9173 23.7186 35.9115 23.6787 35.8977C23.6389 35.8839 23.6021 35.8624 23.5705 35.8344C23.5389 35.8064 23.5132 35.7725 23.4947 35.7345C23.4763 35.6966 23.4655 35.6553 23.4629 35.6132C23.4604 35.5711 23.4662 35.5289 23.48 35.489C23.4938 35.4491 23.5153 35.4123 23.5433 35.3808C23.5713 35.3492 23.6052 35.3234 23.6432 35.305C23.6811 35.2865 23.7224 35.2757 23.7645 35.2732L51.864 31.8388C51.9491 31.8286 52.0347 31.8526 52.1021 31.9055C52.1695 31.9585 52.2131 32.036 52.2233 32.1211C52.2335 32.2062 52.2095 32.2918 52.1565 32.3592C52.1036 32.4266 52.0261 32.4701 51.941 32.4804C23.2149 35.9896 23.835 35.9147 23.803 35.9147ZM14.7401 42.7215C14.655 42.7266 14.5714 42.6977 14.5077 42.6412C14.4439 42.5846 14.4052 42.505 14.4001 42.42C14.395 42.3349 14.4239 42.2513 14.4804 42.1875C14.537 42.1237 14.6166 42.0851 14.7016 42.08L52.5526 37.448C52.6377 37.4375 52.7234 37.4613 52.791 37.514C52.8586 37.5667 52.9024 37.6442 52.9129 37.7292C52.9234 37.8143 52.8997 37.9001 52.847 37.9676C52.7942 38.0352 52.7168 38.0791 52.6317 38.0896C13.5768 42.8648 14.7722 42.7215 14.7401 42.7215ZM15.4073 48.1725C15.3222 48.1776 15.2386 48.1487 15.1749 48.0921C15.1111 48.0356 15.0724 47.956 15.0673 47.8709C15.0622 47.7859 15.0911 47.7022 15.1476 47.6385C15.2042 47.5747 15.2838 47.536 15.3688 47.5309L53.2198 42.899C53.3049 42.8885 53.3906 42.9122 53.4582 42.965C53.5258 43.0177 53.5696 43.0951 53.5801 43.1802C53.5906 43.2653 53.5669 43.351 53.5142 43.4186C53.4614 43.4862 53.384 43.53 53.2989 43.5405C14.244 48.3179 15.4415 48.1725 15.4073 48.1725ZM16.8294 53.1466C16.7443 53.1517 16.6607 53.1228 16.597 53.0662C16.5332 53.0097 16.4945 52.9301 16.4894 52.845C16.4843 52.76 16.5132 52.6763 16.5697 52.6126C16.6263 52.5488 16.7058 52.5101 16.7909 52.505L36.9995 50.0308C37.0846 50.0206 37.1702 50.0446 37.2376 50.0975C37.305 50.1505 37.3485 50.228 37.3588 50.3131C37.369 50.3982 37.345 50.4838 37.292 50.5512C37.2391 50.6185 37.1615 50.6621 37.0765 50.6723C15.9206 53.262 16.8615 53.1466 16.8294 53.1466ZM45.5769 71.9095C45.4918 71.9146 45.4082 71.8857 45.3444 71.8292C45.2807 71.7726 45.242 71.6931 45.2369 71.608C45.2318 71.5229 45.2607 71.4393 45.3172 71.3755C45.3738 71.3118 45.4533 71.2731 45.5384 71.268L62.2591 69.2215C62.3442 69.2112 62.4299 69.2353 62.4972 69.2882C62.5646 69.3411 62.6082 69.4187 62.6184 69.5037C62.6286 69.5888 62.6046 69.6745 62.5517 69.7418C62.4987 69.8092 62.4212 69.8528 62.3361 69.863C44.7899 72.01 45.609 71.9095 45.5769 71.9095ZM54.5585 67.8101C54.3496 67.8094 54.1409 67.7944 53.9341 67.7652C53.5662 67.7138 53.1065 67.5064 52.7429 66.8798C51.8277 67.4722 50.9188 67.716 50.0292 67.6069C48.3933 67.4059 47.463 66.0779 47.4139 66.0202C47.3654 65.9501 47.3467 65.8637 47.3619 65.7799C47.3772 65.696 47.4251 65.6217 47.4951 65.5732C47.5652 65.5247 47.6516 65.506 47.7354 65.5213C47.8192 65.5365 47.8936 65.5844 47.9421 65.6545C47.9421 65.6673 48.7654 66.8093 50.1147 66.9718C50.8718 67.0616 51.6651 66.8328 52.4671 66.2853C51.4641 63.3407 52.7558 56.7627 54.0795 55.7405C54.4558 55.4518 54.8921 55.5267 55.215 55.9116C56.3719 57.3144 56.5986 63.5823 53.5748 66.2361C53.4679 66.3302 53.3609 66.4201 53.254 66.5035C53.455 66.8784 53.7081 67.0873 54.0132 67.13C56.4853 67.4743 56.9857 65.4064 57.007 65.3187C57.0258 65.2357 57.0767 65.1634 57.1487 65.1179C57.2207 65.0724 57.3078 65.0573 57.3909 65.076C57.474 65.0947 57.5462 65.1457 57.5918 65.2177C57.6373 65.2897 57.6523 65.3768 57.6336 65.4599C57.4667 66.144 57.0706 66.7504 56.511 67.178C55.9515 67.6056 55.2624 67.8287 54.5585 67.8101ZM54.4879 56.2495C53.5085 57.0022 52.2211 62.9835 53.0252 65.8726L53.1663 65.7529C55.9613 63.2979 55.5978 57.3636 54.736 56.3158C54.6098 56.1661 54.5628 56.1896 54.4879 56.2495ZM27.7356 72.0977C26.5758 72.0961 25.4412 71.7597 24.4679 71.1289C23.4946 70.4982 22.7241 69.5999 22.2489 68.5419C21.7737 67.4839 21.614 66.3113 21.789 65.1647C21.964 64.0182 22.4662 62.9466 23.2353 62.0785C24.0045 61.2105 25.0079 60.5829 26.125 60.2712C27.2421 59.9595 28.4255 59.9769 29.533 60.3213C30.6404 60.6657 31.625 61.3225 32.3683 62.2128C33.1116 63.103 33.5821 64.189 33.7233 65.3401C33.8255 66.1872 33.7469 67.0463 33.4928 67.8608C33.2386 68.6752 32.8146 69.4265 32.2488 70.0651C31.6829 70.7037 30.9881 71.215 30.2102 71.5654C29.4322 71.9158 28.5888 72.0972 27.7356 72.0977ZM23.1614 62.4917C22.4537 63.3969 22.0302 64.4916 21.9445 65.6374C21.8589 66.7832 22.1149 67.9288 22.6802 68.9291C23.2455 69.9295 24.0947 70.7397 25.1205 71.2575C26.1462 71.7753 27.3025 71.9772 28.4431 71.8379C29.5836 71.6986 30.6573 71.2242 31.5282 70.4748C32.3992 69.7253 33.0284 68.7345 33.3363 67.6275C33.6442 66.5205 33.617 65.347 33.258 64.2555C32.8991 63.1639 32.2245 62.2034 31.3197 61.4952C30.7187 61.0247 30.0308 60.6773 29.2955 60.4728C28.5602 60.2683 27.7917 60.2107 27.0341 60.3032C26.2765 60.3957 25.5445 60.6367 24.88 61.0122C24.2155 61.3877 23.6316 61.8904 23.1614 62.4917Z" fill="#2D1929"/>
<path d="M27.7464 74.4607C27.5326 74.4607 27.3658 74.1848 27.199 73.8919C27.0942 73.7058 26.9488 73.4492 26.8525 73.4385C26.7563 73.4278 26.5467 73.6524 26.3971 73.7999C26.1682 74.0437 25.9544 74.2725 25.7384 74.2276C25.5224 74.1827 25.4369 73.8705 25.3449 73.5454C25.2872 73.3316 25.2081 73.0557 25.1161 73.0215C25.0242 72.9873 24.7718 73.1455 24.59 73.2632C24.3099 73.4428 24.0426 73.616 23.848 73.5112C23.6534 73.4064 23.6341 73.0835 23.6341 72.7563C23.6341 72.5425 23.617 72.2452 23.5358 72.1896C23.4545 72.134 23.1744 72.2281 22.9691 72.2987C22.6526 72.4078 22.3553 72.5126 22.1864 72.3629C22.0175 72.2132 22.0859 71.9074 22.1565 71.5802C22.1992 71.3663 22.2612 71.0798 22.195 71.0049C22.1287 70.9301 21.8357 70.9579 21.6197 70.9771C21.2861 71.0071 20.9782 71.037 20.8434 70.8531C20.7087 70.6692 20.8434 70.3869 20.9995 70.0875C21.0936 69.8908 21.2241 69.6235 21.177 69.5337C21.13 69.4438 20.8392 69.4032 20.6275 69.3711C20.296 69.3198 19.9859 69.2728 19.9025 69.0632C19.8191 68.8536 20.0244 68.6141 20.2361 68.3596C20.3751 68.1907 20.5676 67.9619 20.5419 67.8635C20.5163 67.7651 20.2489 67.6497 20.0522 67.5748C19.74 67.4444 19.4449 67.3225 19.4107 67.0979C19.3764 66.8734 19.6373 66.6852 19.9089 66.4842C20.08 66.358 20.3174 66.1827 20.3152 66.0864C20.3131 65.9902 20.0757 65.8084 19.9004 65.678C19.6331 65.4812 19.3786 65.2952 19.4064 65.0771C19.4342 64.859 19.725 64.7328 20.0351 64.6023C20.234 64.5211 20.5056 64.4077 20.5291 64.3115C20.5526 64.2153 20.3623 63.9843 20.2254 63.8175C20.0116 63.5609 19.8106 63.3193 19.8875 63.1118C19.9645 62.9044 20.281 62.8552 20.6125 62.8039C20.8263 62.7718 21.1172 62.7269 21.1621 62.6392C21.207 62.5515 21.0808 62.2842 20.9867 62.0896C20.8392 61.7881 20.7023 61.5037 20.8285 61.3219C20.9546 61.1401 21.269 61.1658 21.6026 61.1958C21.8164 61.215 22.1116 61.2407 22.1778 61.1658C22.2441 61.091 22.1778 60.8023 22.1372 60.5906C22.0666 60.2634 22.0004 59.949 22.1672 59.8057C22.334 59.6625 22.6312 59.7608 22.9477 59.8699C23.1509 59.9383 23.4331 60.0346 23.5144 59.9768C23.5957 59.9191 23.6042 59.6261 23.6106 59.4123C23.6213 59.0765 23.632 58.7707 23.8245 58.6552C24.0169 58.5398 24.2842 58.7215 24.5644 58.9033C24.7483 59.0209 24.9921 59.1813 25.0926 59.145C25.1931 59.1086 25.2637 58.8285 25.3214 58.621C25.4112 58.2981 25.4989 57.9902 25.717 57.9367C26.1019 57.8426 26.5724 58.7344 26.829 58.7173C26.9317 58.7044 27.0792 58.4435 27.1862 58.2532C27.3487 57.9645 27.5026 57.6929 27.7229 57.6908C27.9474 57.6908 28.1057 57.9688 28.2704 58.2596C28.3773 58.4457 28.5227 58.7023 28.6189 58.713C28.7152 58.7237 28.9247 58.5098 29.0723 58.3516C29.3011 58.1078 29.5149 57.879 29.7309 57.9239C29.9469 57.9688 30.0346 58.2832 30.1244 58.6061C30.1822 58.8199 30.2634 59.0958 30.3554 59.1321C30.4473 59.1685 30.6997 59.006 30.8814 58.8883C31.1616 58.7087 31.4267 58.5355 31.6235 58.6403C31.8202 58.7451 31.8373 59.068 31.8373 59.3952C31.8373 59.609 31.8523 59.9063 31.9357 59.9619C32.0191 60.0175 32.2971 59.9234 32.5003 59.8528C32.8168 59.7437 33.1161 59.6389 33.2829 59.7886C33.4497 59.9383 33.3834 60.2441 33.315 60.5713C33.2701 60.7852 33.2081 61.0717 33.2765 61.1466C33.345 61.2214 33.6358 61.1957 33.8496 61.1744C34.1854 61.1444 34.4912 61.1166 34.6259 61.2984C34.7606 61.4802 34.6152 61.7646 34.4698 62.064C34.3757 62.2607 34.2559 62.528 34.2944 62.6178C34.3329 62.7076 34.6302 62.7483 34.8419 62.7804C35.1755 62.8317 35.4834 62.8809 35.569 63.0904C35.6545 63.3 35.4449 63.5374 35.2332 63.7919C35.0942 63.9608 34.9039 64.1896 34.9274 64.288C34.9509 64.3864 35.2225 64.5018 35.4193 64.5767C35.7315 64.7071 36.0245 64.829 36.0608 65.0536C36.0886 65.2674 35.832 65.4663 35.5604 65.6673C35.3893 65.7935 35.1541 65.9688 35.1541 66.0651C35.1541 66.1613 35.3957 66.3452 35.569 66.4735C35.8384 66.6702 36.0908 66.8563 36.0651 67.0744C36.0394 67.2925 35.7443 67.4208 35.4235 67.5492C35.2247 67.6326 34.9552 67.7459 34.9317 67.84C34.9082 67.9341 35.0964 68.1672 35.2354 68.334C35.4492 68.5906 35.6502 68.8322 35.5711 69.0397C35.492 69.2471 35.1798 69.2963 34.8483 69.3476C34.6345 69.3797 34.3436 69.4246 34.2966 69.5123C34.2495 69.6 34.38 69.8673 34.4741 70.0619C34.6195 70.3634 34.7585 70.6478 34.6323 70.8296C34.5061 71.0113 34.1918 70.9857 33.8582 70.9557C33.6443 70.9365 33.3471 70.9108 33.2808 70.9857C33.2145 71.0605 33.2808 71.3492 33.3236 71.5609C33.3941 71.8881 33.4604 72.2025 33.2936 72.3458C33.1268 72.489 32.8296 72.3907 32.5131 72.2837C32.2992 72.2132 32.0277 72.1169 31.9443 72.1747C31.8609 72.2324 31.8544 72.5254 31.848 72.7392C31.848 73.075 31.8288 73.3936 31.6342 73.4962C31.4396 73.5989 31.1744 73.43 30.8943 73.2503C30.7125 73.1327 30.4666 72.9702 30.3661 73.0065C30.2656 73.0429 30.1971 73.3252 30.1394 73.5305C30.0474 73.8555 29.9619 74.172 29.7438 74.2148C29.3588 74.3131 28.8884 73.4129 28.6296 73.4342C28.527 73.4471 28.3816 73.708 28.2746 73.8983C28.1677 74.0886 27.9881 74.4607 27.7464 74.4607ZM26.844 73.2247C27.0856 73.2247 27.2567 73.5604 27.385 73.7849C27.4898 73.9688 27.6481 74.2469 27.7464 74.2469C27.8042 74.2469 27.8854 74.1699 28.0971 73.7935C28.2554 73.5134 28.4051 73.2482 28.6147 73.2225C28.8242 73.1969 29.0423 73.4171 29.2562 73.6502C29.3973 73.7999 29.6112 74.0287 29.7053 74.0052C29.7994 73.9817 29.8892 73.6737 29.9448 73.4706C30.0303 73.1669 30.1116 72.8782 30.304 72.8055C30.4965 72.7328 30.7531 72.8953 31.0226 73.0664C31.1979 73.1798 31.4631 73.3508 31.5486 73.3059C31.6342 73.261 31.6449 72.9424 31.6513 72.7307C31.662 72.4142 31.6705 72.1148 31.8395 71.9972C32.0084 71.8796 32.2971 71.9758 32.5986 72.0784C32.7975 72.1447 33.0948 72.2474 33.1675 72.1832C33.2402 72.1191 33.1675 71.809 33.1311 71.6037C33.0648 71.2915 33.0007 70.9985 33.1311 70.8424C33.2616 70.6863 33.5588 70.712 33.8881 70.7419C34.102 70.759 34.4099 70.7868 34.4677 70.7077C34.5254 70.6286 34.3843 70.342 34.2923 70.1538C34.1533 69.8673 34.0207 69.5957 34.1191 69.4118C34.2175 69.2279 34.5126 69.1829 34.8269 69.1338C35.0408 69.1017 35.3466 69.0546 35.3829 68.9627C35.4193 68.8707 35.214 68.6291 35.0814 68.4687C34.8675 68.2228 34.6836 67.9897 34.735 67.7887C34.7863 67.5876 35.06 67.4722 35.353 67.3503C35.5476 67.269 35.8406 67.1471 35.8534 67.0466C35.8662 66.9461 35.6117 66.7665 35.4428 66.6424C35.184 66.4543 34.9403 66.2746 34.9403 66.0629C34.9403 65.8512 35.1798 65.6801 35.4342 65.4919C35.6139 65.3594 35.8619 65.1776 35.8491 65.0771C35.8363 64.9766 35.5519 64.8632 35.3466 64.7734C35.0536 64.6515 34.7777 64.5382 34.7285 64.3457C34.6794 64.1533 34.8718 63.918 35.0771 63.6635C35.2097 63.5032 35.4107 63.2615 35.3765 63.1717C35.3423 63.0819 35.0279 63.0306 34.8184 62.9985C34.5061 62.9514 34.2089 62.9065 34.1127 62.7226C34.0164 62.5387 34.1469 62.2671 34.2859 61.9784C34.3778 61.7902 34.5147 61.508 34.4591 61.4267C34.4035 61.3454 34.087 61.3754 33.8774 61.3946C33.5609 61.4224 33.2616 61.4502 33.1247 61.2963C32.9878 61.1423 33.0477 60.845 33.114 60.5328C33.1568 60.3297 33.2231 60.0196 33.1504 59.9554C33.0776 59.8913 32.7783 59.9939 32.5794 60.0624C32.2779 60.165 31.9934 60.2634 31.8224 60.1458C31.6513 60.0281 31.6427 59.7181 31.632 59.408C31.632 59.1941 31.6149 58.8819 31.5273 58.837C31.4396 58.7921 31.1765 58.961 31.0012 59.0744C30.7317 59.2476 30.4794 59.4123 30.2827 59.3374C30.0859 59.2626 30.0089 58.976 29.9234 58.6702C29.8657 58.4671 29.7801 58.1613 29.6839 58.1377C29.5877 58.1142 29.3759 58.3516 29.2327 58.4949C29.0188 58.728 28.805 58.9525 28.5911 58.9226C28.3773 58.8926 28.2383 58.6381 28.0822 58.3644C27.9795 58.1805 27.8213 57.9025 27.7208 57.9025C27.663 57.9025 27.5818 57.9838 27.3701 58.358C27.2118 58.6381 27.0621 58.9012 26.8547 58.9268C26.6473 58.9525 26.427 58.7322 26.2131 58.4991C26.0699 58.3473 25.8603 58.1206 25.7641 58.142C25.6678 58.1634 25.5802 58.4735 25.5224 58.6766C25.4369 58.9824 25.3578 59.269 25.1653 59.3417C24.9728 59.4144 24.7141 59.254 24.4446 59.0808C24.2693 58.9675 24.0041 58.7964 23.9207 58.8413C23.8373 58.8862 23.8223 59.2048 23.8159 59.4165C23.8159 59.733 23.7988 60.0324 23.6277 60.1522C23.4567 60.2719 23.1722 60.1736 22.8686 60.0688C22.6718 60.0025 22.3724 59.8998 22.2997 59.964C22.227 60.0281 22.2997 60.3404 22.3382 60.5435C22.4045 60.8557 22.4665 61.1508 22.3382 61.3048C22.2099 61.4588 21.8998 61.4353 21.5834 61.4075C21.3695 61.3882 21.0594 61.3604 21.0038 61.4417C20.9482 61.5229 21.0872 61.8052 21.177 61.9934C21.3182 62.28 21.4486 62.5515 21.3524 62.7355C21.2562 62.9194 20.9589 62.9643 20.6446 63.0135C20.4307 63.0455 20.1228 63.0926 20.0886 63.1867C20.0543 63.2808 20.2554 63.5181 20.3879 63.6785C20.6018 63.9244 20.7857 64.1575 20.7365 64.3607C20.6873 64.5638 20.4115 64.675 20.1185 64.7884C19.9239 64.8696 19.6309 65.0022 19.6181 65.092C19.6053 65.1819 19.8597 65.3722 20.0265 65.4962C20.2853 65.6865 20.5291 65.864 20.5291 66.0757C20.5291 66.2875 20.2896 66.4585 20.0372 66.6467C19.8555 66.7793 19.6095 66.9632 19.6224 67.0616C19.6352 67.16 19.9175 67.2754 20.1249 67.3674C20.4157 67.4871 20.6916 67.6026 20.7408 67.7951C20.79 67.9875 20.5975 68.2228 20.3922 68.4794C20.2596 68.6376 20.0586 68.8793 20.0928 68.9691C20.1271 69.0589 20.4435 69.1102 20.651 69.1423C20.9653 69.1894 21.2604 69.2364 21.3567 69.4182C21.4529 69.6 21.3225 69.8758 21.1835 70.1624C21.0936 70.3506 20.9568 70.635 21.0124 70.7141C21.068 70.7932 21.3845 70.7654 21.5919 70.7462C21.9084 70.7184 22.2078 70.6906 22.3468 70.8467C22.4858 71.0028 22.4216 71.2958 22.3468 71.608C22.304 71.8218 22.2399 72.1212 22.3126 72.1854C22.3853 72.2495 22.6847 72.149 22.8814 72.0806C23.1829 71.9758 23.4673 71.8667 23.6406 71.9972C23.8138 72.1276 23.8202 72.4142 23.8309 72.7328C23.8309 72.9467 23.848 73.2589 23.9335 73.3059C24.0191 73.353 24.2864 73.1798 24.4617 73.0664C24.729 72.8932 24.9835 72.7307 25.1781 72.8034C25.3727 72.8761 25.4519 73.1648 25.5374 73.4706C25.5951 73.6737 25.6807 73.9795 25.7769 74.0031C25.8731 74.0266 26.0848 73.7892 26.2281 73.6459C26.4505 73.4342 26.6473 73.2247 26.844 73.2247Z" fill="#2D1929"/>
<path d="M63.4475 0.719728C60.3489 4.53904 53.0588 12.6674 45.1657 14.9192C44.4386 15.133 43.9404 15.9029 43.9575 16.8075L44.2355 32.5915C44.3766 40.583 48.6493 48.2665 55.8474 53.6427L63.578 59.4165C63.8202 59.6087 64.1129 59.7265 64.4207 59.7557C64.7285 59.7849 65.0382 59.7243 65.3123 59.5812L70.8979 56.4761C79.1097 51.9148 84.5136 44.1158 85.3134 34.9759L86.8103 17.8981C86.898 16.8951 86.3463 16.0077 85.4738 15.7382C76.4131 12.9582 69.1016 4.47061 66.1826 0.679098C65.4598 -0.238307 64.2131 -0.227615 63.4475 0.719728Z" fill="#123807"/>
<mask id="mask1_405_3530" style="mask-type:luminance" maskUnits="userSpaceOnUse" x="46" y="4" width="38" height="53">
<path d="M57.2624 51.085C50.8598 46.3248 47.0298 39.5009 46.9571 32.5958L46.7988 17.8039C54.1124 15.4516 60.6989 8.97633 64.6872 4.36792C68.4316 8.98916 75.0267 15.843 83.2512 18.8112L82.0045 34.5546C81.3758 42.5204 76.6434 49.4491 69.3619 53.6105L64.4434 56.4226L57.2624 51.085Z" fill="white"/>
</mask>
<g mask="url(#mask1_405_3530)">
<path d="M78.6324 13.1956C77.2766 36.0773 66.2592 52.2163 53.3984 59.4786L60.5645 69.3626L82.8837 53.7111L92.6629 18.5803L92.1754 6.68823L78.6324 13.1956Z" fill="#FFFF00" fill-opacity="0.4"/>
</g>
<path d="M64.9355 38.9449L58.1116 31.9264C57.9556 31.7687 57.86 31.5613 57.8413 31.3402C57.8226 31.1192 57.882 30.8986 58.0092 30.717C58.1365 30.5353 58.3234 30.404 58.5375 30.346C58.7516 30.288 58.9793 30.3069 59.1808 30.3996L64.8414 32.908L74.0154 22.7716C74.1741 22.5984 74.3915 22.4904 74.6255 22.4685C74.8594 22.4466 75.0931 22.5124 75.2812 22.6531C75.4693 22.7938 75.5985 22.9993 75.6436 23.2299C75.6886 23.4605 75.6464 23.6995 75.5252 23.9008L66.4238 38.7781C66.3483 38.9012 66.2456 39.0054 66.1237 39.0829C66.0018 39.1603 65.8639 39.2089 65.7204 39.225C65.5769 39.2411 65.4316 39.2242 65.2955 39.1757C65.1595 39.1271 65.0364 39.0482 64.9355 38.9449Z" fill="#FEFE00"/>
</svg>
