<svg width="50" height="50" viewBox="0 0 50 50" fill="none" xmlns="http://www.w3.org/2000/svg">
<path d="M30.5807 3.57122C32.3078 3.57137 33.9723 4.21751 35.2471 5.38263C36.522 6.54776 37.3149 8.14758 37.47 9.86765C39.0452 10.0385 40.5346 10.6713 41.7512 11.6863C42.9678 12.7013 43.8572 14.0533 44.3075 15.5723C44.7579 17.0914 44.7492 18.7096 44.2824 20.2237C43.8157 21.7378 42.9118 23.0801 41.6843 24.0819C43.353 24.9032 44.7056 26.2501 45.5337 27.9154C46.3619 29.5808 46.6198 31.4721 46.2676 33.2983C45.9155 35.1246 44.9729 36.7844 43.5849 38.0224C42.1969 39.2604 40.4405 40.0079 38.5861 40.1498L38.5147 40.4891C38.2075 41.9212 37.4884 43.2323 36.4457 44.261C35.403 45.2896 34.0823 45.991 32.6461 46.2786C31.2099 46.5663 29.721 46.4278 28.3625 45.8802C27.0041 45.3325 25.8354 44.3996 25.0004 43.1962C24.1654 44.3996 22.9969 45.3325 21.6386 45.8803C20.2802 46.4281 18.7914 46.5667 17.3553 46.2793C15.9191 45.9918 14.5984 45.2907 13.5556 44.2622C12.5128 43.2338 11.7934 41.9229 11.4861 40.4909L11.4146 40.1516C9.55839 40.0128 7.79941 39.2669 6.40912 38.0292C5.01884 36.7914 4.07452 35.1305 3.72189 33.3028C3.36927 31.475 3.62793 29.5821 4.45796 27.9159C5.28799 26.2498 6.64327 24.9031 8.31465 24.0837C7.08718 23.0819 6.18326 21.7396 5.71652 20.2255C5.24977 18.7114 5.24104 17.0931 5.69141 15.5741C6.14177 14.0551 7.03115 12.7031 8.24772 11.6881C9.4643 10.673 10.9538 10.0403 12.5289 9.86943C12.6545 8.46918 13.2037 7.1404 14.1034 6.0601C15.0031 4.97981 16.2105 4.19927 17.565 3.82245C18.9194 3.44564 20.3565 3.49044 21.6848 3.95088C23.0132 4.41132 24.1697 5.26556 25.0004 6.39979C25.6425 5.52264 26.4825 4.80934 27.4521 4.31786C28.4217 3.82638 29.4936 3.57057 30.5807 3.57122ZM19.42 6.24979C18.2952 6.24979 17.2165 6.69662 16.4211 7.49197C15.6258 8.28733 15.1789 9.36606 15.1789 10.4909V11.1605C15.1789 11.5157 15.0378 11.8564 14.7867 12.1075C14.5355 12.3587 14.1948 12.4998 13.8396 12.4998H13.3932C11.9724 12.4998 10.6098 13.0642 9.60515 14.0689C8.60049 15.0735 8.03608 16.4361 8.03608 17.8569C8.03608 19.2777 8.60049 20.6403 9.60515 21.645C10.6098 22.6497 11.9724 23.2141 13.3932 23.2141H13.8396C15.1421 23.2141 16.3911 23.7315 17.312 24.6524C18.233 25.5733 18.7504 26.8224 18.7504 28.1248V28.8034C19.6465 29.1167 20.4026 29.7376 20.8844 30.5556C21.3662 31.3737 21.5424 32.336 21.3818 33.2717C21.2212 34.2074 20.7342 35.0559 20.0072 35.6665C19.2803 36.2771 18.3604 36.6103 17.4111 36.6069C16.4645 36.6054 15.5488 36.2696 14.8255 35.6589C14.1023 35.0482 13.6179 34.2017 13.4578 33.2687C13.2976 32.3357 13.4721 31.3762 13.9503 30.5592C14.4285 29.7423 15.1799 29.1205 16.0718 28.8034V28.1248C16.0718 26.8926 15.0718 25.8926 13.8396 25.8926H12.0539C10.5147 25.8926 9.03857 26.5041 7.95019 27.5925C6.86181 28.6809 6.25036 30.157 6.25036 31.6962C6.25036 33.2354 6.86181 34.7116 7.95019 35.8C9.03857 36.8883 10.5147 37.4998 12.0539 37.4998H12.5004C12.7669 37.4998 13.0274 37.5793 13.2485 37.7282C13.4696 37.8771 13.6412 38.0885 13.7414 38.3355L13.8093 38.5587L14.1021 39.9301C14.3539 41.0958 15.0276 42.1273 15.9938 42.8263C16.96 43.5252 18.1504 43.8424 19.3363 43.7168C20.5222 43.5912 21.6198 43.0317 22.4181 42.1458C23.2165 41.2599 23.6591 40.1102 23.6611 38.9176V18.7498H21.1968C20.8834 19.646 20.2626 20.4021 19.4445 20.8838C18.6265 21.3656 17.6642 21.5418 16.7285 21.3812C15.7928 21.2206 14.9443 20.7336 14.3337 20.0067C13.723 19.2797 13.3898 18.3599 13.3932 17.4105C13.3948 16.4639 13.7305 15.5482 14.3413 14.825C14.952 14.1017 15.7985 13.6173 16.7314 13.4572C17.6644 13.2971 18.624 13.4715 19.4409 13.9497C20.2578 14.428 20.8797 15.1793 21.1968 16.0712H23.6611V10.4909C23.6611 9.36606 23.2143 8.28733 22.4189 7.49197C21.6235 6.69662 20.5448 6.24979 19.42 6.24979ZM38.1557 25.8962C37.9556 26.4586 37.6327 26.9693 37.2104 27.3913C36.7882 27.8132 36.2772 28.1358 35.7146 28.3355V29.0176C35.7146 29.6625 35.5876 30.3011 35.3408 30.8969C35.0941 31.4927 34.7323 32.034 34.2763 32.49C33.8203 32.946 33.279 33.3078 32.6832 33.5546C32.0874 33.8013 31.4488 33.9284 30.8039 33.9284H26.3396V38.9176C26.3395 40.1112 26.7811 41.2625 27.5793 42.1499C28.3775 43.0372 29.4758 43.5977 30.6627 43.7235C31.8496 43.8492 33.041 43.5313 34.0074 42.8309C34.9738 42.1305 35.6469 41.0972 35.8968 39.9301L36.1914 38.5587L36.2593 38.3355C36.3595 38.0885 36.5312 37.8771 36.7522 37.7282C36.9733 37.5793 37.2338 37.4998 37.5004 37.4998H37.9468C39.4688 37.5012 40.9305 36.9047 42.0169 35.8386C43.1033 34.7726 43.7275 33.3225 43.7549 31.8007C43.7823 30.2789 43.2107 28.8072 42.1634 27.7028C41.1161 26.5984 39.6768 25.9496 38.1557 25.8962ZM17.4111 31.2498C17.0559 31.2498 16.7152 31.3909 16.4641 31.6421C16.2129 31.8932 16.0718 32.2339 16.0718 32.5891C16.0718 32.9443 16.2129 33.2849 16.4641 33.5361C16.7152 33.7873 17.0559 33.9284 17.4111 33.9284C17.7663 33.9284 18.1069 33.7873 18.3581 33.5361C18.6093 33.2849 18.7504 32.9443 18.7504 32.5891C18.7504 32.2339 18.6093 31.8932 18.3581 31.6421C18.1069 31.3909 17.7663 31.2498 17.4111 31.2498ZM30.5807 6.24979C29.4559 6.24979 28.3772 6.69662 27.5818 7.49197C26.7865 8.28733 26.3396 9.36606 26.3396 10.4909V31.2498H30.8039C32.0361 31.2498 33.0361 30.2498 33.0361 29.0176V28.3355C32.1425 28.0203 31.3892 27.3992 30.9095 26.582C30.4297 25.7649 30.2546 24.8044 30.4149 23.8705C30.5753 22.9366 31.0608 22.0895 31.7856 21.4792C32.5104 20.8688 33.4278 20.5345 34.3754 20.5355C36.045 20.5355 37.4754 21.5534 38.0825 23.0034C39.3239 22.6477 40.3949 21.8555 41.0984 20.7726C41.8018 19.6897 42.0904 18.3892 41.9108 17.1104C41.7312 15.8317 41.0956 14.6608 40.1211 13.8136C39.1466 12.9664 37.8988 12.4998 36.6075 12.4998H36.1611C35.8059 12.4998 35.4652 12.3587 35.2141 12.1075C34.9629 11.8564 34.8218 11.5157 34.8218 11.1605V10.4909C34.8218 9.36606 34.375 8.28733 33.5796 7.49197C32.7843 6.69662 31.7055 6.24979 30.5807 6.24979ZM34.3754 23.2141C34.0202 23.2141 33.6795 23.3552 33.4283 23.6063C33.1772 23.8575 33.0361 24.1982 33.0361 24.5534C33.0361 24.9086 33.1772 25.2492 33.4283 25.5004C33.6795 25.7515 34.0202 25.8926 34.3754 25.8926C34.7306 25.8926 35.0712 25.7515 35.3224 25.5004C35.5735 25.2492 35.7146 24.9086 35.7146 24.5534C35.7146 24.1982 35.5735 23.8575 35.3224 23.6063C35.0712 23.3552 34.7306 23.2141 34.3754 23.2141ZM17.4111 16.0712C17.0559 16.0712 16.7152 16.2123 16.4641 16.4635C16.2129 16.7147 16.0718 17.0553 16.0718 17.4105C16.0718 17.7657 16.2129 18.1064 16.4641 18.3575C16.7152 18.6087 17.0559 18.7498 17.4111 18.7498C17.7663 18.7498 18.1069 18.6087 18.3581 18.3575C18.6093 18.1064 18.7504 17.7657 18.7504 17.4105C18.7504 17.0553 18.6093 16.7147 18.3581 16.4635C18.1069 16.2123 17.7663 16.0712 17.4111 16.0712Z" fill="white"/>
</svg>
